<?xml version="1.0" encoding="UTF-8" standalone="no"?>
<!-- Created with Inkscape (http://www.inkscape.org/) -->
<svg
   xmlns:dc="http://purl.org/dc/elements/1.1/"
   xmlns:cc="http://creativecommons.org/ns#"
   xmlns:rdf="http://www.w3.org/1999/02/22-rdf-syntax-ns#"
   xmlns:svg="http://www.w3.org/2000/svg"
   xmlns="http://www.w3.org/2000/svg"
   xmlns:sodipodi="http://sodipodi.sourceforge.net/DTD/sodipodi-0.dtd"
   xmlns:inkscape="http://www.inkscape.org/namespaces/inkscape"
   width="443.02573"
   height="339.82007"
   id="svg2474"
   sodipodi:version="0.32"
   inkscape:version="0.46"
   version="1.0"
   sodipodi:docname="airplane_topdown.svg"
   inkscape:output_extension="org.inkscape.output.svg.inkscape">
  <defs
     id="defs2476" />
  <sodipodi:namedview
     id="base"
     pagecolor="#ffffff"
     bordercolor="#666666"
     borderopacity="1.0"
     gridtolerance="10000"
     guidetolerance="10"
     objecttolerance="10"
     inkscape:pageopacity="0.0"
     inkscape:pageshadow="2"
     inkscape:zoom="0.35"
     inkscape:cx="-193.57143"
     inkscape:cy="220"
     inkscape:document-units="px"
     inkscape:current-layer="layer1"
     showgrid="false"
     inkscape:window-width="1280"
     inkscape:window-height="949"
     inkscape:window-x="0"
     inkscape:window-y="25" />
  <metadata
     id="metadata2479">
    <rdf:RDF>
      <cc:Work
         rdf:about="">
        <dc:format>image/svg+xml</dc:format>
        <dc:type
           rdf:resource="http://purl.org/dc/dcmitype/StillImage" />
        <cc:license
           rdf:resource="http://creativecommons.org/licenses/publicdomain/" />
        <dc:creator>
          <cc:Agent>
            <dc:title>Brian Burger/Wirelizard Design</dc:title>
          </cc:Agent>
        </dc:creator>
        <dc:description>Top-down planoform view of a single-engine airplane - Cessna or similar.</dc:description>
        <dc:title>Airplane Planoform</dc:title>
      </cc:Work>
      <cc:License
         rdf:about="http://creativecommons.org/licenses/publicdomain/">
        <cc:permits
           rdf:resource="http://creativecommons.org/ns#Reproduction" />
        <cc:permits
           rdf:resource="http://creativecommons.org/ns#Distribution" />
        <cc:permits
           rdf:resource="http://creativecommons.org/ns#DerivativeWorks" />
      </cc:License>
    </rdf:RDF>
  </metadata>
  <g
     inkscape:label="Layer 1"
     inkscape:groupmode="layer"
     id="layer1"
     transform="translate(-81.344286,-488.16643)">
    <path
       style="fill:#ffffff;fill-opacity:1"
       d="M 301.65957,488.16643 C 300.89207,488.16643 298.77344,491.53631 296.97917,495.65506 C 292.235,506.54537 291.92799,507.0146 288.96145,507.4578 C 287.47494,507.67988 285.6213,508.60511 284.85084,509.53346 C 284.08037,510.4618 281.70672,519.51127 279.55996,529.63881 C 276.40295,544.53219 275.62827,551.24447 275.61215,564.68073 C 275.60118,573.81744 275.14241,581.97079 274.59467,582.83253 C 273.8452,584.01166 253.97282,584.58854 194.21395,585.15238 C 150.54088,585.56445 108.24828,586.2528 100.23974,586.65824 C 80.22244,587.67161 81.096461,586.36946 81.477457,614.82202 C 81.642806,627.16958 82.24105,637.75597 82.820527,638.3461 C 84.05567,639.60394 86.876684,639.91035 172.11435,647.66619 C 207.92955,650.92505 245.91367,654.38921 256.52427,655.35832 C 267.13486,656.32744 276.33266,657.61257 276.95522,658.24795 C 278.11579,659.4324 279.32936,666.34661 289.32774,727.11083 C 293.0882,749.96457 294.67268,762.66847 293.84534,763.49582 C 293.14592,764.19524 279.64464,766.35131 263.85011,768.29831 C 243.86585,770.76179 234.12731,772.53907 231.77923,774.07758 L 228.40121,776.27534 L 229.29659,792.71777 C 229.79652,801.76855 230.63721,809.64027 231.16875,810.17768 C 231.7003,810.71508 247.04481,811.20377 265.27458,811.27656 C 285.68306,811.35803 299.06991,811.9233 300.07231,812.74173 C 300.96769,813.4728 301.70027,816.81523 301.70027,820.18966 C 301.70027,823.56409 302.07742,826.71237 302.55495,827.18991 C 305.31969,829.95464 308.21213,825.20314 308.21213,817.86981 C 308.21213,814.36986 308.84861,812.46437 310.24708,811.92774 C 311.38012,811.49295 327.20393,811.15446 345.4111,811.15446 C 363.61826,811.15446 378.58347,811.00794 378.62156,810.82887 C 379.33612,807.47018 379.81163,783.47527 379.23205,780.38594 C 377.88519,773.20652 373.30251,771.55052 343.05055,767.44363 C 328.20034,765.42761 315.36338,763.35001 314.47979,762.80393 C 313.23805,762.0365 314.00986,754.48464 317.89851,729.51207 C 320.66561,711.74204 324.18332,688.55706 325.71274,678.02772 C 327.24215,667.49836 328.78688,658.59255 329.17216,658.20726 C 329.55745,657.82196 364.4113,653.69774 406.62254,649.04996 C 448.83377,644.40219 491.8813,639.65954 502.26542,638.50889 C 512.64952,637.35826 521.88006,635.79446 522.77776,635.04947 C 522.77776,635.04947 523.64262,624.09124 524.03944,613.15336 C 524.43624,602.21546 524.36503,591.29794 524.36503,591.29794 C 524.14603,589.64933 522.88055,588.27412 521.92308,586.94314 L 519.44044,583.8907 L 424.57084,583.23952 L 329.70125,582.58833 L 328.84657,563.66325 C 328.00457,544.99615 324.19652,522.42517 320.34046,513.19637 C 319.16017,510.37154 316.98959,508.1778 314.19489,507.01011 C 311.30929,505.80443 309.357,503.77097 308.29352,500.90525 C 304.94401,491.87945 303.00614,488.16643 301.65957,488.16643 z M 301.57817,493.29452 C 304.04904,494.23367 306.12952,502.50681 306.70626,506.03333 C 304.00341,506.1436 298.62842,505.67475 296.53148,506.39962 C 296.79317,504.16343 299.24396,494.47342 301.57817,493.29452 z M 296.57218,510.42884 C 298.17954,510.40242 299.89194,510.41029 301.65957,510.46953 C 304.77245,510.57387 307.11782,510.53641 308.94471,510.55093 C 314.42541,510.53946 315.06489,511.18498 316.59614,513.52197 C 318.79233,516.87376 323.53767,542.27354 322.33471,543.4765 C 321.95566,543.85556 313.05813,544.48684 302.55495,544.90097 C 285.42066,545.57654 283.3685,545.4469 282.61239,543.4765 C 281.55528,540.72174 285.54311,513.40311 287.41489,511.52771 C 287.98622,510.95528 291.75012,510.50806 296.57218,510.42884 z M 322.9045,546.20334 C 324.43359,548.23952 323.9192,553.17876 322.57891,555.64553 C 307.97939,544.7218 286.09656,552.15089 282.124,555.15714 C 282.12402,553.13222 280.41588,547.48434 281.83911,546.61033 C 289.00262,547.76869 310.41967,547.16764 322.9045,546.20334 z M 301.21188,551.69772 C 303.02844,551.72727 305.01983,551.87035 308.17143,552.06401 C 313.05549,552.49426 316.83817,554.17592 320.42185,556.9886 C 322.23112,558.98782 322.56214,561.60292 322.25331,571.02979 L 322.37541,582.58833 L 322.701,588.6525 C 323.30753,589.60934 323.78891,606.24688 323.79988,625.60728 C 323.81997,661.08819 322.86841,672.80914 316.63684,714.12781 C 315.55652,721.29086 313.67376,733.58153 312.72972,741.47761 C 305.36629,803.30218 308.06437,777.40717 306.33997,750.02442 C 306.00385,744.68687 305.28966,740.06102 304.9969,739.76825 C 303.30284,738.07419 301.69084,741.87846 301.57817,747.74527 C 300.5396,794.75009 299.58728,777.76852 296.49079,748.31506 C 296.48679,747.07607 295.63471,741.50845 294.57793,735.94253 C 293.52116,730.37663 291.42428,719.10938 289.93823,710.87189 C 288.45219,702.63439 286.68387,692.96428 286.03112,689.38276 C 285.37838,685.80124 284.26224,679.35451 283.54847,675.05668 C 282.13604,666.55207 281.12476,589.04127 282.4089,587.75712 C 282.76163,581.81505 283.11435,575.87298 283.46707,569.93091 C 283.46707,559.20511 285.01382,555.88805 291.1999,553.32568 C 292.97777,552.58927 294.35977,552.0812 295.43261,552.02331 C 297.77051,551.74537 299.39533,551.66817 301.21188,551.69772 z M 438.65273,587.71642 C 446.90168,587.70045 454.81841,587.70678 461.89191,587.71642 L 514.51585,587.79782 L 514.88214,603.05998 C 515.24155,618.02796 515.19042,618.31651 512.2774,618.97333 C 507.02764,620.15697 445.1317,624.93072 418.91367,626.21777 C 404.94574,626.90345 380.91699,628.65419 365.51645,630.08418 C 334.94812,632.92255 329.90868,633.14053 328.60237,631.83424 C 328.12483,631.35671 327.74769,621.42888 327.74769,609.77533 L 327.74769,588.6118 L 369.09797,588.12341 C 386.15497,587.92565 413.9059,587.76432 438.65273,587.71642 z M 518.17877,587.87922 C 518.91755,587.87922 521.14449,589.6944 521.55679,590.76885 C 522.30167,596.36502 521.88044,602.03395 521.80098,607.65898 C 521.78645,620.61786 520.55585,632.92896 518.99275,632.28193 C 516.52253,631.25941 516.51902,587.87922 518.17877,587.87922 z M 276.46683,588.32691 C 277.53257,592.70894 277.65141,594.6149 278.29829,611.60679 L 277.932,632.07844 L 269.14099,632.20053 C 263.76871,632.28144 247.65187,631.89747 233.3258,631.34585 C 218.99972,630.79422 196.72916,630.02473 183.83569,629.63649 C 152.37104,628.68903 101.95468,626.30698 96.821016,625.48518 C 92.914906,624.85989 92.634193,624.44175 91.855727,618.03725 C 91.40146,614.29999 91.222175,606.845 91.448736,601.47271 L 91.855727,591.70493 L 99.669953,590.89095 C 103.96778,590.45446 140.53185,589.99169 179.92857,589.87347 C 219.3253,589.75527 256.61139,589.34988 262.79193,588.93739 C 266.0616,588.71917 274.34183,588.35107 276.46683,588.32691 z M 87.785817,591.74563 C 89.671129,597.00974 88.534198,607.05482 88.681197,612.74636 C 89.010423,630.98097 88.556469,637.90341 86.239251,634.15409 C 85.767363,633.39056 84.860392,624.76824 84.204296,614.98481 C 83.081718,598.24509 84.849908,591.47497 87.785817,591.74563 z M 513.86466,623.61302 C 514.8936,625.72523 515.57936,629.86852 514.47515,633.13661 C 513.57977,633.44596 491.77569,636.01621 468.60727,638.54959 C 420.25925,643.83627 421.54554,644.29647 418.50668,643.55558 C 417.70038,639.87709 417.31299,634.2951 418.14039,631.38655 C 419.90782,630.47558 428.32329,630.07807 435.84449,629.59579 C 443.36569,629.11354 463.22459,627.5285 480.00301,626.09567 C 494.68412,624.84195 510.22238,623.55564 513.86466,623.61302 z M 92.913903,629.2702 C 94.056499,629.12985 95.989166,629.50994 99.262962,629.71789 C 105.69402,629.66766 119.52818,630.45426 146.06692,631.99704 C 167.11673,633.22072 183.31888,633.88042 188.96377,634.64248 C 189.62341,636.56777 189.20797,639.57703 189.20797,641.19503 C 184.05653,641.2063 188.63036,641.39164 174.96328,640.29965 C 167.74675,639.72307 162.52964,639.83167 161.77677,640.58455 C 162.25725,643.71671 157.09151,642.59069 153.47416,642.4974 C 144.30381,642.26085 96.045897,637.23668 93.687186,636.96233 C 90.342697,636.5733 91.308848,633.60741 91.367337,631.95634 C 91.433472,630.08977 91.77132,629.41054 92.913903,629.2702 z M 412.27972,630.00278 C 413.17618,629.98261 414.0691,629.99581 414.96586,630.00278 C 415.98385,632.23703 415.96395,640.64658 415.25075,644.20677 C 411.71746,645.41686 414.02246,644.66915 370.72594,649.00926 C 352.46018,650.84025 335.99269,652.47323 334.13745,652.67218 C 332.28221,652.87113 329.58587,653.36044 329.25356,652.55008 C 327.91404,649.28349 328.01703,641.08741 329.37566,638.2647 C 330.61946,636.99166 373.60588,632.67176 404.22129,630.45047 C 406.90371,630.25131 409.59035,630.06329 412.27972,630.00278 z M 193.60347,634.03199 L 203.04566,634.03199 C 216.39571,634.02686 273.07005,636.59364 276.67033,637.36932 C 279.39851,637.95712 279.63211,638.63082 279.27507,644.81725 L 278.66458,652.30589 L 271.09455,651.8175 C 263.27192,652.02016 198.29843,646.30267 195.23143,645.14285 C 194.30008,644.79065 193.60347,642.2859 193.60347,639.28218 L 193.60347,634.03199 z M 303.11972,754.73667 C 304.39644,746.9763 304.59165,751.66459 304.9969,768.21691 C 305.40217,784.76923 305.68091,806.46524 305.56668,822.67231 C 304.72267,823.55357 303.81977,823.99908 303.08404,821.98042 C 302.24405,812.97652 302.90235,804.01801 302.91678,786.65361 C 302.93121,769.28918 302.4047,764.49131 303.11972,754.73667 z M 314.56118,766.75175 C 314.95665,766.74672 315.47146,766.84337 316.14845,767.03664 C 317.49354,767.01104 319.43266,767.18537 322.33471,767.48433 C 334.99672,768.78876 367.39321,773.50416 368.65028,774.28108 C 369.24432,774.6482 369.17937,778.82805 369.17937,783.72327 C 369.17937,790.63784 369.51814,792.43857 367.9177,794.10154 C 364.92008,794.53635 351.72601,794.22364 336.74219,794.22364 C 311.65464,794.22364 309.49075,794.0433 309.5145,791.94449 C 309.55258,788.57971 312.27078,771.84694 312.93322,768.9902 C 313.24907,767.62816 313.3748,766.76684 314.56118,766.75175 z M 291.56619,768.37971 C 292.14678,768.36408 292.58859,768.33998 292.86857,768.37971 C 295.52939,768.75731 296.03963,770.02834 297.87455,780.91503 C 299.29913,789.36704 299.49606,793.29804 298.52574,793.89804 C 297.76068,794.37116 284.83456,795.0107 269.79218,795.28181 C 248.62133,795.66336 241.27529,796.16481 238.61667,795.44461 C 238.18797,789.93106 237.83767,778.36722 238.86086,775.50205 C 241.76373,774.04384 282.85747,768.6142 291.56619,768.37971 z M 234.13978,776.51953 C 236.38196,775.99582 235.93054,783.31681 235.93054,792.92127 C 235.93054,802.52877 236.25139,807.83426 234.22118,808.10203 C 231.95479,808.40095 232.67461,803.97609 232.67461,792.92127 C 232.76278,788.35274 231.42034,777.07382 234.13978,776.51953 z M 373.69697,776.60093 C 376.36635,776.41705 375.57075,779.05604 375.65053,791.94449 C 375.70829,801.21574 375.38863,808.18343 374.47025,808.18343 C 372.1688,808.18343 371.91821,808.7717 372.3132,790.19443 C 372.48295,782.21087 371.61533,776.34773 373.69697,776.60093 z M 319.36368,796.50279 C 325.72933,796.48961 336.68192,796.84127 346.42858,796.82838 C 356.17524,796.81549 365.5093,797.19221 368.16189,797.60166 C 369.01418,799.50603 369.17937,799.98305 369.17937,802.81115 L 369.17937,808.30552 L 358.67901,808.30552 C 353.4858,808.3106 345.42738,808.3886 340.7714,808.30552 C 333.45059,808.17491 329.18736,808.85658 329.17216,805.94498 C 329.09032,804.82449 324.95398,805.17147 318.75319,805.0496 C 308.35903,804.84529 308.41429,805.16143 309.2703,796.74698 C 313.67685,796.52045 315.28412,796.51124 319.36368,796.50279 z M 284.93224,797.52026 C 291.70333,797.46619 296.57786,797.77486 299.90951,797.80516 C 300.12518,805.5219 301.00841,803.84091 287.82188,804.35771 C 279.13173,804.6983 276.515,805.12417 274.55397,805.90428 C 274.9006,808.80134 269.17255,808.54972 256.68707,808.54972 C 243.87568,808.54972 240.80873,808.5302 238.04688,807.93923 C 238.09072,806.34045 238.15228,800.07614 238.57597,798.74124 C 239.86605,798.25394 242.61163,798.41868 266.41415,797.84586 C 274.22211,797.65796 280.26568,797.53829 284.93224,797.52026 z"
       id="path3476"
       sodipodi:nodetypes="csssssssssssssssscccssssssssssssssssscsccccccsssccccccscsssssccccccccccccsscssccssssccsccccccsssscccccccscccccsssscccsscccsscccsccsscccsccscsssccccssscccccscccscccsccscccssscsssccssssccccsscccsssccsccccscsccccscsccsc" />
  </g>
</svg>
