<?xml version="1.0" ?><svg height="32" id="svg5" version="1.1" viewBox="0 0 32 32" width="32" xmlns="http://www.w3.org/2000/svg" xmlns:svg="http://www.w3.org/2000/svg"><defs id="defs2"/><g id="layer1" transform="translate(-108,-148)"><path d="m 118,150.00586 a 1.0001,1.0001 0 0 0 -0.70703,0.29297 l -7,7 A 1.0001,1.0001 0 0 0 110,158.00586 v 12 a 1.0001,1.0001 0 0 0 0.29297,0.70703 l 7,7 A 1.0001,1.0001 0 0 0 118,178.00586 h 12 a 1.0001,1.0001 0 0 0 0.70703,-0.29297 l 7,-7 A 1.0001,1.0001 0 0 0 138,170.00586 v -12 a 1.0001,1.0001 0 0 0 -0.29297,-0.70703 l -7,-7 A 1.0001,1.0001 0 0 0 130,150.00586 Z m 0.41406,2 h 11.17188 L 136,158.41992 v 11.17188 l -6.41406,6.41406 H 118.41406 L 112,169.5918 v -11.17188 z" id="rect3963" style="color:#000000;fill:#000000;fill-rule:evenodd;stroke-linecap:round;stroke-linejoin:round;stroke-miterlimit:4.1;-inkscape-stroke:none"/><path d="m 117.63672,156.64258 a 1,1 0 0 0 -0.70703,0.29297 1,1 0 0 0 0,1.41406 l 5.65625,5.6582 -5.65625,5.65625 a 1,1 0 0 0 0,1.41406 1,1 0 0 0 1.41406,0 L 124,165.42188 l 5.65625,5.65624 a 1,1 0 0 0 1.41406,0 1,1 0 0 0 0,-1.41406 l -5.65625,-5.65625 5.65625,-5.6582 a 1,1 0 0 0 0,-1.41406 1,1 0 0 0 -0.70703,-0.29297 1,1 0 0 0 -0.70703,0.29297 L 124,162.5918 l -5.65625,-5.65625 a 1,1 0 0 0 -0.70703,-0.29297 z" id="path4751" style="color:#000000;fill:#000000;fill-rule:evenodd;stroke-linecap:round;stroke-linejoin:round;stroke-miterlimit:4.1;-inkscape-stroke:none"/></g></svg>